<?xml version="1.0" encoding="UTF-8"?>
<svg id="Layer_1" data-name="Layer 1" xmlns="http://www.w3.org/2000/svg" viewBox="0 0 142.87 174.35">
  <defs>
    <style>
      .cls-1, .cls-2, .cls-3 {
        fill: #fff;
      }

      .cls-4 {
        fill: #5b1d02;
      }

      .cls-5 {
        fill: none;
        stroke: #5b1d02;
        stroke-linecap: round;
        stroke-linejoin: round;
        stroke-width: 1.3px;
      }

      .cls-6 {
        fill: #fe853b;
      }

      .cls-7 {
        fill: #feae2f;
      }

      .cls-2 {
        opacity: .18;
      }

      .cls-8 {
        opacity: .06;
      }

      .cls-3 {
        opacity: .29;
      }

      .cls-9 {
        fill: #ba4b0d;
        opacity: .22;
      }

      .cls-10 {
        fill: #fea03b;
      }

      .cls-11 {
        fill: #d5d1ce;
      }

      .cls-12 {
        fill: #fec13c;
      }

      .cls-13 {
        fill: #fbbc05;
        font-family: ShowcardGothic-Reg, 'Showcard Gothic';
        font-size: 25.4px;
      }
    </style>
  </defs>
  <g class="cls-8">
    <path d="m53.54,17.3c0,.06,0,.13,0,.19-.23.02-.48.02-.57.28-.33.04-.61.13-.56.54-.62-.04-1.03.18-1.12.81-.28-.07-.46.02-.56.28-.79.32-1.42.78-1.68,1.61-.19,0-.28.09-.29.27-.18,0-.28.09-.28.27-.18,0-.28.09-.28.27-.5-.04-.73.34-.99.63-4.75,5.24-8.56,10.94-9.66,17.98-3.54,22.62-2.7,45.57.32,68.19.18,1.31.24,2.2,1.04,3.25.34.45,2.41,2.4,3.11,1.92-.63.43-1.38.44-2.11.53-5.08.62-10.09.25-15.05-.89-1.76-.52-3.39-1.42-5.27-1.54h0s-.07-.04-.07-.04c-.1-.22-.29-.25-.5-.23l-.06-.03c-.8-.64-1.64-1.2-2.71-1.36-2.1-1.3-4.18-2.62-5.96-4.33,0,0,.02-.02.02-.02,0,0-.02.02-.02.02-1.66-1.23-1.88-3.1-2.25-4.86-.37-1.77-.58-3.57-.86-5.36-.02-.26-.03-.52-.05-.78,0-.83.2-1.67-.23-2.46-.02-.53-.04-1.06-.06-1.58.01-1.09.2-2.2-.22-3.27-.01-.62-.03-1.25-.04-1.87,0-.1,0-.2-.01-.29-.01-.61-.03-1.23-.05-1.84.07-1.81.21-3.63-.17-5.43,0-.36,0-.72,0-1.07,0-1.17,0-2.34,0-3.51,0-1.17.01-2.34.02-3.5.34-.9.25-1.82.07-2.73.07-2.24.13-4.47.2-6.71.29-.35.24-.73.1-1.11.26-3.58.57-7.15.93-10.72.39-3.9,2.26-6.74,5.54-9.03,7.46-5.22,15.32-9.81,23.3-14.22,5.03-2.77,10.12-5.43,15.33-7.87.54-.26,1.06-.6,1.71-.39Z"/>
    <path d="m10.28,105.9s.02-.02.02-.02c0,0-.02.02-.02.02h0Z"/>
    <path d="m48.19,21.82h0-.02s0,0,0,0c0,0,0,0,.02,0Z"/>
    <polygon points="48.46 21.55 48.47 21.55 48.46 21.56 48.46 21.55"/>
    <path d="m48.74,21.28h.02s-.01.01-.02.02v-.02Z"/>
    <path d="m49.03,21.01h0v.02s-.01,0-.01,0c0,0,0,0,0-.01Z"/>
    <path d="m50.71,19.4s0,0,.01,0h-.01s0,0,0,0Z"/>
    <path d="m51.27,19.12s0,0,0,0h-.01s0,0,0,0Z"/>
    <polygon points="52.4 18.32 52.41 18.32 52.4 18.33 52.4 18.32"/>
    <polygon points="52.97 17.78 52.96 17.79 52.96 17.78 52.97 17.78"/>
    <path d="m122.05,70.9c-.17-7-.59-14-1.07-21.02-.28-4.16-1.72-7.69-5.59-9.99-.55-.33-1.05-.75-1.58-1.12-10.38-7.1-21.39-13.19-32.65-18.88-4.22-2.13-8.46-4.25-12.98-5.75-1.88-.62-3.86-1.53-5.94-.51-.33,1.48-1.61,2.37-2.43,3.55-2.88,4.16-4.55,8.63-4.02,13.67.29,2.83,1.59,5.29,3.33,7.58.81,1.07,2.09,1.79,2.55,3.12,5.36,2.84,10.75,5.6,16.06,8.53,10.05,5.54,20.04,11.16,29.35,17.82,1.72,1.23,3.32,2.61,4.68,4.22.23.28.49.54.49.92.35.02.5.24.56.54,0,0,0,0,0,.01,0,0-.01,0-.02,0-.36-.02-.48-.26-.56-.55-.85-.5-.49.32-.64.57.22,1.69-.39,3.08-1.64,4.25-1.48,1.38-3.05,2.66-4.74,3.79-16.92,11.26-34.73,21.04-53.27,29.61-3.07,1.42-6.2,2.76-9.66,3.12-3.05.7-6.15.77-9.25.59-2.82-.16-5.62-.6-8.37-1.25-1.8-.35-3.55-.81-5.08-1.84h0s-.07-.04-.07-.04c-.21.02-.4-.02-.5-.23l-.06-.03c-.18.09-.36.19-.55.28.05.07.09.16.16.2,5.82,3.51,11.73,6.88,17.72,10.12,2.53,1.37,4.93,2.35,7.34,3.95,2.76,1.84,5.6,3.58,8.63,4.97,4.4,2.02,9.29,3.28,14.15,2.85,5.11-.45,9.84-2.73,14.36-5.06,7.4-3.81,14.65-7.9,21.73-12.24,3.66-2.25,7.28-4.57,10.85-6.95,2.91-1.95,6.43-3.79,7-7.51,1.61-10.44,1.95-20.87,1.7-31.32Zm-3.64,12.13c-.52-.43-.69-1.03-.85-1.63,0,0,0,0,0,0-.1-.18-.19-.36-.29-.55,0,0,0,0,0,0-.1-.18-.19-.36-.29-.54,0,0,0,0,0,0-.09-.18-.19-.36-.28-.54,0,0,0,0,0,0-1.03-1.7-2.29-3.27-3.08-5.1-.36-.02-.47-.27-.57-.54,0,0,0,0,0-.01,0,0,.01,0,.02,0,.36.02.49.26.56.55h0c1.35,1.53,2.53,3.14,3.08,5.11.26.1.27.32.28.54.26.1.26.33.28.54.27.1.24.34.28.55.56.41.73,1.01.85,1.63.39.64.85,1.26.58,2.08-.2-.7-.4-1.39-.6-2.09Z"/>
    <path d="m112.22,73.04s.01,0,.02,0h0s-.02,0-.02,0Z"/>
    <path d="m112.79,73.58s0,0,0,.01v-.02s0,0,0,0Z"/>
    <path d="m113.06,74.12s.01,0,.02,0c0,0,0,.01,0,.02l-.02-.02Z"/>
    <path d="m116.72,79.78s0,.02,0,.02l-.02-.03s0,0,0,0c0,0,0,0,.01,0Z"/>
    <path d="m117.01,80.32s0,.01,0,.02l-.02-.03s0,0,0,0c0,0,0,0,.01,0Z"/>
    <path d="m117.29,80.86s0,.02,0,.02l-.02-.03s0,0,0,0c0,0,0,0,.01,0Z"/>
    <path d="m117.57,81.41s0,.01,0,.02l-.02-.03s0,0,0,0c0,0,0,0,0,0Z"/>
    <path d="m50.72,19.39s0,0,0,.01c0,0,0,0-.01,0h.01Z"/>
    <polygon points="51.28 19.13 51.28 19.13 51.27 19.13 51.28 19.13"/>
    <polygon points="52.41 18.32 52.4 18.32 52.4 18.33 52.41 18.32"/>
    <path d="m52.97,17.78s0,0,0,.01c0,0,0,0-.01,0h.01Z"/>
    <path d="m59.11,38.42c.81,1.07,2.09,1.79,2.55,3.12-.25-.1-.52-.2-.76-.32-4.8-2.32-9.58-4.65-14.66-6.4-2.47-.85-4.64-.77-6.69.82-.05-.04-.09-.09-.14-.13h0c.85-2.52,2.25-4.79,3.62-7.08,1.44-2.41,3.44-4.42,5.17-6.62h-.02s0,0,.02,0c.09-.09.18-.17.27-.26l.02-.02c.09-.08.18-.17.26-.25,0,0,.01,0,.02-.02h0c.09-.09.18-.17.27-.26,0,0,0,0,.01-.01v.02c.73-.37,1.41-.8,1.68-1.61.29.1.46-.02.56-.27.52-.08.86-.4,1.12-.81.31-.06.59-.15.57-.54.28.07.47-.03.56-.29,0-.06,0-.13,0-.19,2.83-1.38,5.59-2.9,8.7-3.68-.33,1.48-1.61,2.37-2.43,3.55-2.88,4.16-4.55,8.63-4.02,13.67.29,2.83,1.59,5.29,3.33,7.58Z"/>
    <path d="m6.51,83.6c-.13-.12-.37-.23-.37-.34.02-1.7-.39-3.41.2-5.08.38,1.8.23,3.62.17,5.43Z"/>
    <path d="m6.83,90.87c-.91-1.04-.54-2.15-.22-3.27.42,1.07.23,2.17.22,3.27Z"/>
    <path d="m6.35,70.08c-.41-.92-.51-1.84.07-2.73.17.92.27,1.83-.07,2.73Z"/>
    <path d="m122.09,77.91c0-1.71,0-3.42,0-5.13.39,1.71.4,3.42,0,5.13Z"/>
    <path d="m121.58,92.22c-.05-.83-.2-1.66.21-2.46.32.85.61,1.7-.21,2.46Z"/>
    <path d="m7.13,94.91c-.88-.75-.54-1.6-.23-2.46.43.79.23,1.63.23,2.46Z"/>
    <path d="m6.34,77.09c-.45-1.17-.44-2.34,0-3.51,0,1.17,0,2.34,0,3.51Z"/>
    <path d="m122.05,65.23c-.29-.45-.26-.92-.04-1.38.46.45.45.91.04,1.38Z"/>
    <path d="m6.62,60.64c-.4-.41-.41-.78.1-1.11.14.39.18.76-.1,1.11Z"/>
    <path d="m121.78,58.76c-.28-.35-.25-.73-.1-1.11.49.33.48.71.1,1.11Z"/>
    <path d="m122.09,70.89v-1.62c.37.54.36,1.08,0,1.62Z"/>
    <path d="m122.07,81.41c0-.36,0-.72,0-1.09.35.36.35.73,0,1.09Z"/>
    <path d="m6.57,85.73c-.03-.07-.08-.13-.1-.2,0-.02.06-.06.09-.09,0,.1,0,.2.01.29Z"/>
    <path d="m10.28,105.9s.02-.02.02-.02c0,0-.02.02-.02.02h0Z"/>
    <polygon points="19.57 111.89 19.57 111.89 19.56 111.89 19.57 111.89 19.57 111.89"/>
    <path d="m35.94,64.72c-.1-1.19-.24-2.38.15-3.55.37,1.2.6,2.39-.15,3.55Z"/>
    <path d="m36.21,56.63c-.23-1.38.13-2.72.22-4.09.27,1.38.6,2.76-.22,4.09Z"/>
    <path d="m36.09,87.07c-.36-.71-.24-1.45-.13-2.19.7.7.5,1.44.13,2.19Z"/>
    <path d="m52.4,18.32s0,0,0,0c0,0,0,0,0,0-.05-.4.23-.5.56-.54,0,0,0,0,0,0,0,0,0,0,0,.01.03.39-.26.47-.57.54Z"/>
    <path d="m53.53,17.5c-.09.27-.28.36-.56.29,0,0,0,0-.01,0,0,0,0,0,0,0,.1-.27.34-.26.57-.28Z"/>
    <path d="m112.24,73.05s-.01,0-.02-.01c0,0,0,0,0,0h.02Z"/>
    <path d="m112.8,73.6s-.01,0-.02,0c0,0,0-.01,0-.02v.02Z"/>
    <path d="m113.08,74.14s0,0-.01,0c0,0,0,0,0-.01l.02.02Z"/>
    <path d="m113.64,74.67h0s0,0,0,0c0,0,0-.01,0-.02l.02.02Z"/>
    <path d="m118.42,83.04s0,0-.01-.01c0,0,0-.01,0-.02,0,0,0,.01.01.02,0,0,0,0,0,0,0,0,0,0,0,0h0Z"/>
    <polygon points="19.57 111.89 19.57 111.89 19.57 111.89 19.56 111.89 19.57 111.89"/>
    <path d="m116.71,79.78s.01.02.02.03l-.02-.03s0,0,0,0Z"/>
    <path d="m117,80.32s0,.02.01.03l-.02-.03s0,0,0,0Z"/>
    <path d="m117.28,80.86s0,.02.01.03l-.02-.03s0,0,0,0Z"/>
    <path d="m117.57,81.42l-.02-.03s0,0,0,0c0,0,0,.02.01.02Z"/>
    <path d="m18.94,111.59c-.18.09-.36.19-.55.28-.75-.51-1.67-.81-2.16-1.64,1.06.16,1.9.72,2.71,1.36Z"/>
    <path d="m19.5,111.85c-.21.02-.4-.02-.5-.23.21-.01.4.01.5.23Z"/>
    <path d="m39.55,35.65c-.06.05-.16.15-.18.14-.16-.11-.07-.19.04-.27.05.04.09.09.14.13Z"/>
  </g>
  <g>
    <path class="cls-12" d="m3.07,79.8c-.01-.62-.03-1.25-.04-1.87,0-.1,0-.2-.01-.29-.02-.61-.03-1.23-.05-1.84.07-1.81.21-3.63-.17-5.43,0-.36,0-.72,0-1.07,0-1.17,0-2.34,0-3.51,0-1.17.01-2.33.02-3.5.34-.9.25-1.82.07-2.73.07-2.24.13-4.47.2-6.71.29-.35.24-.73.1-1.11.26-3.58.57-7.15.93-10.72.39-3.9,2.26-6.74,5.54-9.03,7.46-5.22,15.32-9.81,23.3-14.22,5.03-2.77,10.12-5.43,15.33-7.87.54-.26,1.06-.6,1.71-.39,0,.06,0,.13,0,.19-.23.02-.48.01-.57.29h.01c-.34.03-.62.12-.57.54h0c-.63-.05-1.04.17-1.13.81h.01c-.28-.09-.47,0-.58.27h.01c-.8.31-1.44.78-1.7,1.62v-.02c-.18,0-.28.09-.28.28l.02-.02c-.2,0-.3.09-.3.28l.02-.02c-.2,0-.3.09-.3.28,0,0,.02-.01.02-.01-.51-.05-.74.34-1.01.63-4.75,5.24-8.56,10.94-9.66,17.98-.6,3.85-1.03,7.71-1.08,11.61,0,.17-.02.34-.03.52-.1,1.36-.45,2.71-.22,4.09-.04,1.51-.07,3.03-.11,4.54-.39,1.17-.25,2.36-.15,3.55-.13,6.72-.15,13.43.02,20.15-.11.74-.23,1.48.13,2.19,0,1.62,0,3.23.01,4.85-.37,1.09-.69,2.2-1.1,3.27-2.11,5.43-6.01,9.05-11.93,10.44-3.93.92-7.92.8-11.9.18-.32-.05-.62-.21-.89.09-1.66-1.23-1.88-3.1-2.25-4.86-.37-1.77-.58-3.57-.86-5.36-.02-.26-.03-.52-.05-.78,0-.83.2-1.67-.23-2.46-.02-.53-.04-1.06-.06-1.58.01-1.09.2-2.2-.22-3.27Z"/>
    <path class="cls-10" d="m118.32,79.3c-.03.89-.06,1.77-.09,2.66-.4.79-.25,1.63-.2,2.46-.03.53-.05,1.06-.08,1.59-.55.68-.04,1.57-.5,2.26-.11-3.74-.98-7.36-2-10.95.27-.83-.21-1.45-.6-2.11l.02.03c-.12-.63-.29-1.24-.86-1.65l.02.03c-.04-.22-.01-.47-.3-.57l.02.03c-.03-.22,0-.47-.3-.57l.02.03c-.02-.23-.01-.47-.3-.57l.02.03c-.55-1.99-1.75-3.61-3.11-5.15l.02.02c-.07-.3-.21-.54-.58-.56l.02.02c.02-.24-.05-.45-.29-.56v.02c-.04-.32-.19-.54-.57-.55h.02c.01-.38-.25-.64-.49-.92-1.36-1.62-2.95-2.99-4.68-4.22-9.3-6.66-19.3-12.29-29.35-17.82-5.3-2.92-10.7-5.69-16.06-8.53-.46-1.33-1.74-2.05-2.56-3.12-1.74-2.29-3.03-4.75-3.33-7.58-.52-5.04,1.14-9.51,4.02-13.67.81-1.18,2.1-2.07,2.43-3.55,2.09-1.02,4.06-.12,5.94.51,4.52,1.49,8.76,3.62,12.98,5.75,11.26,5.69,22.28,11.78,32.65,18.88.53.36,1.03.79,1.58,1.12,3.86,2.31,5.3,5.83,5.59,9.99.18,2.59.47,5.18.7,7.77-.15.39-.18.76.1,1.11.07,1.7-.06,3.4.23,5.09-.22.47-.25.93.04,1.39.01,1.35.02,2.69.03,4.04,0,.54,0,1.08,0,1.62,0,.63,0,1.25,0,1.88,0,1.71,0,3.42,0,5.13,0,.81,0,1.61,0,2.42,0,.36,0,.72,0,1.09,0,.54-.01,1.07-.02,1.61-.38,1.35-.25,2.71-.19,4.08Z"/>
    <path class="cls-6" d="m58.69,5.82c-.33,1.48-1.61,2.37-2.43,3.55-2.88,4.16-4.55,8.63-4.02,13.67.29,2.83,1.59,5.29,3.33,7.58.81,1.07,2.09,1.79,2.56,3.12-.26-.11-.52-.2-.76-.32-4.8-2.32-9.58-4.65-14.66-6.4-2.47-.85-4.64-.77-6.69.82-.05-.04-.09-.09-.14-.13.85-2.52,2.25-4.79,3.62-7.08,1.44-2.41,3.44-4.42,5.16-6.62,0,0-.02.01-.02.01.1-.09.2-.19.3-.28,0,0-.02.02-.02.02.1-.09.2-.19.3-.28,0,0-.02.02-.02.02.1-.09.2-.19.3-.28,0,0-.01.02-.01.02.75-.37,1.43-.8,1.7-1.63,0,0-.01.01-.01.01.3.11.47-.02.58-.28,0,0-.01,0-.01,0,.53-.08.87-.4,1.13-.82,0,0,0,0,0,0,.32-.06.6-.15.57-.55,0,0-.01,0-.01,0,.28.07.48-.02.57-.29,0-.06,0-.13,0-.19,2.83-1.38,5.59-2.9,8.7-3.68Z"/>
    <path class="cls-11" d="m2.8,70.36c.38,1.8.23,3.62.17,5.43-.13-.11-.37-.23-.37-.34.02-1.7-.39-3.41.21-5.08Z"/>
    <path class="cls-11" d="m3.07,79.8c.42,1.07.23,2.17.22,3.27-.91-1.04-.54-2.15-.22-3.27Z"/>
    <path class="cls-11" d="m2.87,59.55c.17.92.27,1.83-.07,2.73-.41-.92-.51-1.84.07-2.73Z"/>
    <path class="cls-11" d="m118.54,70.1c0-1.71,0-3.42,0-5.13.39,1.71.4,3.42,0,5.13Z"/>
    <path class="cls-11" d="m3.35,84.65c.43.79.23,1.63.23,2.46-.88-.75-.54-1.6-.23-2.46Z"/>
    <path class="cls-11" d="m2.79,65.78c0,1.17,0,2.34,0,3.51-.45-1.17-.44-2.34,0-3.51Z"/>
    <path class="cls-11" d="m118.51,57.43c-.29-.45-.26-.92-.04-1.39.46.45.45.91.04,1.39Z"/>
    <path class="cls-11" d="m3.18,51.73c.14.39.18.76-.1,1.11-.4-.41-.41-.78.1-1.11Z"/>
    <path class="cls-11" d="m118.23,50.95c-.28-.35-.25-.73-.1-1.11.49.33.48.71.1,1.11Z"/>
    <path class="cls-11" d="m118.54,63.09c0-.54,0-1.08,0-1.62.37.54.37,1.08,0,1.62Z"/>
    <path class="cls-11" d="m118.53,73.61c0-.36,0-.72,0-1.09.35.36.35.73,0,1.09Z"/>
    <path class="cls-11" d="m3.01,77.64c0,.1,0,.2.01.29-.03-.07-.08-.13-.1-.2,0-.02.06-.06.09-.09Z"/>
    <path class="cls-7" d="m32.56,84.12c.44,4.49.48,9.01,1.12,13.48.24,1.63.49,3.28.94,4.87.52,1.85,1.82,3.08,3.83,3.52-.63.43-1.38.44-2.11.53-5.08.62-10.09.25-15.05-.89-1.76-.52-3.39-1.42-5.27-1.54l-.07-.04c-.1-.22-.29-.25-.5-.23l-.06-.03c-.8-.63-1.64-1.2-2.71-1.36-2.1-1.3-4.18-2.62-5.96-4.33.27-.3.57-.14.89-.09,3.98.61,7.97.74,11.9-.18,5.92-1.39,9.82-5,11.93-10.44.42-1.07.74-2.18,1.1-3.27Z"/>
    <path class="cls-11" d="m32.55,53.38c.37,1.2.6,2.39-.15,3.55-.1-1.19-.24-2.38.15-3.55Z"/>
    <path class="cls-11" d="m32.88,44.75c.27,1.38.6,2.76-.22,4.09-.23-1.38.13-2.72.22-4.09Z"/>
    <path class="cls-11" d="m32.42,77.07c.7.7.5,1.44.13,2.19-.36-.71-.24-1.45-.13-2.19Z"/>
    <path class="cls-11" d="m49.43,9.98c.03.4-.26.49-.57.55-.05-.42.23-.51.57-.55Z"/>
    <path class="cls-11" d="m49.99,9.69c-.1.27-.29.36-.57.29.09-.28.34-.27.57-.29Z"/>
    <path class="cls-6" d="m108.03,65.81c.16-.26-.21-1.08.66-.56,0,0-.02-.01-.02-.01.08.29.21.54.58.55,0,0-.01-.02-.01-.02-.02.24.07.43.29.56,0,0-.02-.02-.02-.02.1.28.21.54.58.56,0,0-.02-.02-.02-.02.79,1.85,2.07,3.43,3.11,5.15,0,0-.02-.03-.02-.03.1.19.2.38.3.57,0,0-.02-.03-.02-.03.1.19.2.38.3.57,0,0-.02-.03-.02-.03.1.19.2.38.3.57,0,0-.02-.03-.02-.03.16.61.33,1.22.86,1.65,0,0-.02-.03-.02-.03.2.7.4,1.4.6,2.11,1.02,3.59,1.89,7.2,2,10.95.03,2.07-.34,4.11-.65,6.15-.37,2.38-1.97,3.92-3.79,5.3-6.8,5.17-14.22,9.44-21.69,13.62-7.96,4.45-16.01,8.75-24.5,12.21-1.16.47-2.38.8-3.55,1.24-1.7.63-3.37.51-5.07-.04-4.76-1.54-9.22-3.71-13.66-5.9-10.15-5.01-19.91-10.66-29.52-16.56-.07-.04-.11-.14-.16-.21.18-.09.36-.19.55-.28,0,0,.06.03.06.03.1.22.29.25.5.23,0,0,.07.04.07.04,1.53,1.03,3.28,1.5,5.08,1.84,2.75.65,5.54,1.09,8.37,1.25,3.1.17,6.2.1,9.25-.59,3.46-.35,6.59-1.7,9.66-3.12,18.54-8.57,36.35-18.36,53.27-29.61,1.7-1.13,3.26-2.41,4.74-3.79,1.25-1.17,1.85-2.56,1.64-4.25Z"/>
    <path class="cls-10" d="m15.4,103.78c-.18.09-.36.19-.55.28-.75-.51-1.67-.81-2.16-1.64,1.06.16,1.9.72,2.71,1.36Z"/>
    <path class="cls-10" d="m15.96,104.05c-.21.02-.4-.02-.5-.23.21-.01.4.01.5.23Z"/>
    <path class="cls-6" d="m36.01,27.84c-.06.05-.16.15-.18.14-.16-.11-.07-.19.04-.27.05.04.09.09.14.13Z"/>
  </g>
  <path class="cls-2" d="m29.36,28.75c.36-.84-.62-1.63-1.42-1.15,0,0-.02.01-.03.02-5.16,3.1-19.06,12.67-19.4,25.86-.03,1.08,1.31,1.67,2.16.95,7.94-6.74,13.56-13.78,18.69-25.68Z"/>
  <path class="cls-9" d="m111.78,87.28s4.17,8.74-6.52,12.15l-23.33,12.92s-9.21,2.72,7.3-9.25,17.4-24.56,22.55-15.83Z"/>
  <path class="cls-3" d="m62.08,8.44s44.83,20.89,48.71,27.21c3.88,6.32-64.34-29.77-48.71-27.21Z"/>
  <path class="cls-9" d="m46.38,15.56c-.02-.16-.23-.21-.33-.09h0s-7.14,9.07-7.14,9.07c0,0,1.22,1.36,3.21-.26.79-.64,1.71-1.09,2.69-1.38,2.16-.65,1.75-5.79,1.57-7.34Z"/>
  <path class="cls-4" d="m56.7,1.86c3.96-2.32,5.43-2.62,9.34,0-1.57-.23-3.09-1.17-4.64-1.12-1.6.15-3.08.93-4.69,1.12h0Z"/>
  <path class="cls-4" d="m108.5,65.47c-.83-2.5-3.2-4.02-5.22-5.5-2.09-1.51-4.27-2.88-6.47-4.23-12.97-8.39-26.38-16.14-40.42-22.6,0,0-7.02-3.21-7.02-3.21-4.38-1.97-12.28-5.67-14.06,1.15-3.12,17.07-2.24,34.57-1.94,51.86,0,0,.16,7.72.16,7.72.22,4.78-.44,10.69,3.53,14.03,4.33,2.98,9.67-1.44,13.75-3.24,0,0,7.03-3.23,7.03-3.23,11.69-5.18,23.19-11.38,34.16-17.98,4.44-2.61,8.91-5.2,12.89-8.48,1.88-1.54,4.37-3.56,3.61-6.29h0Zm0,0c.77,2.73-1.72,4.77-3.58,6.33-3.96,3.31-8.43,5.94-12.85,8.58-6.44,3.86-13.5,8.08-20.1,11.57-6.56,3.56-14.06,6.98-20.81,10.25-4.35,2.08-9.9,6.68-14.77,3.35-4.44-3.49-3.87-9.84-4.1-14.85,0,0-.22-7.73-.22-7.73-.46-17.39-1.2-35.02,2.17-52.2,2.16-7.62,10.54-4,15.46-1.59,0,0,6.98,3.34,6.98,3.34,13.95,6.71,27.22,14.7,40.18,23.14,2.19,1.36,4.36,2.75,6.44,4.27,2.02,1.5,4.38,3.04,5.19,5.55h0Z"/>
  <path class="cls-5" d="m117.71,81.51c-.31,4.18-.76,8.34-1.4,12.45-.56,3.63-4.19,5.52-7.01,7.47-3.86,2.66-7.8,5.22-11.81,7.66-9.92,6.03-20.34,11.6-31.15,16-1.16.47-2.38.8-3.55,1.24-1.7.63-3.37.51-5.07-.04-10.01-3.25-19.42-8.02-28.42-13.28-4.62-2.71-9.14-5.57-13.62-8.49-3.23-2.11-8.56-4.53-10.58-7.88-2.04-3.37-1.78-8.26-2.11-12.02-.43-4.87-.69-9.75-.79-14.64-.15-7.55.11-15.1.76-22.62.53-6.11.58-11.91,6.2-15.84C24.46,20.84,41.33,13.66,58.2,5.38c5.64-2.77,17.66,5.59,22.46,8.05,7.03,3.59,13.91,7.46,20.6,11.6,5.01,3.1,11.74,6.34,14.41,11.72,3.84,7.73,2.74,18.08,2.7,26.41-.03,6.09-.2,12.24-.66,18.35Z"/>
  <path class="cls-4" d="m0,44.46c-.05-13.91,3.29-14.7,14.5-21.14-1.83,1.4-3.71,2.72-5.6,4.03-3.85,2.3-7.25,5.66-7.87,10.3-.27,2-.68,4.85-1.03,6.81H0Z"/>
  <path class="cls-1" d="m4.17,48.08c-.05-13.91,3.29-14.7,14.5-21.14-1.83,1.4-3.71,2.72-5.59,4.03-3.85,2.3-7.25,5.66-7.87,10.3-.27,2-.68,4.85-1.03,6.81h0Z"/>
  <path class="cls-4" d="m94.15,16.69c5.98,2.91,11.66,6.33,17.02,10.25-5.98-2.91-11.66-6.33-17.02-10.25h0Z"/>
  <path class="cls-4" d="m0,93.68c1.37,3.84,3.2,7.97,7.24,9.57C2.69,102.87.11,97.83,0,93.68H0Z"/>
  <path class="cls-4" d="m38.17,103.52c2.48,1.94,12.4-3.86,15.37-5.02-2.7,1.76-12.67,7.57-15.37,5.02h0Z"/>
  <path class="cls-4" d="m64.95,92.22c1.67-.38,4.12-1.95,5.74-2.69,5.25-2.73,11.7-6.12,17-8.67-5.47,3.27-11.09,6.27-16.83,9.03-1.94.83-3.84,1.96-5.91,2.33h0Z"/>
  <path class="cls-4" d="m53.62,122.26c2.25.45,4.49,1.59,6.74,1.79,1.13.06,2.2-.48,3.34-.8,1.12-.35,2.25-.69,3.39-.99-2.21.8-4.36,2.05-6.73,2.22-2.36-.24-4.52-1.42-6.73-2.22h0Z"/>
  <text class="cls-13" transform="translate(16.76 153.42) scale(1.04 1)"><tspan x="0" y="0">FILIMO</tspan></text>
</svg>